<?xml version="1.0" standalone="no"?>
<!DOCTYPE svg PUBLIC "-//W3C//DTD SVG 20010904//EN"
 "http://www.w3.org/TR/2001/REC-SVG-20010904/DTD/svg10.dtd">
<svg version="1.0" xmlns="http://www.w3.org/2000/svg"
 width="115.000000pt" height="133.000000pt" viewBox="0 0 115.000000 133.000000"
 preserveAspectRatio="xMidYMid meet">

<g transform="translate(0.000000,133.000000) scale(0.100000,-0.100000)"
fill="#000000" stroke="none">
<path d="M575 993 l0 -327 -277 -160 c-152 -89 -278 -165 -279 -171 -1 -9 537
-327 556 -328 6 0 134 72 285 160 l275 161 3 337 c1 205 -1 334 -7 331 -5 -4
-11 -2 -13 3 -2 7 -532 321 -542 321 0 0 -1 -147 -1 -327z m535 -8 c0 -2 -13
-11 -30 -20 -38 -19 -40 -11 -2 9 31 17 32 18 32 11z m-70 -40 c0 -2 -13 -11
-30 -20 -38 -19 -40 -11 -2 9 31 17 32 18 32 11z m-70 -40 c0 -2 -10 -9 -22
-15 -22 -11 -22 -10 -4 4 21 17 26 19 26 11z m-50 -30 c0 -2 -13 -11 -30 -20
-38 -19 -40 -11 -2 9 31 17 32 18 32 11z m-70 -40 c0 -2 -10 -9 -22 -15 -22
-11 -22 -10 -4 4 21 17 26 19 26 11z m-50 -30 c0 -2 -13 -11 -30 -20 -38 -19
-40 -11 -2 9 31 17 32 18 32 11z m-75 -44 c-16 -14 -105 -63 -105 -58 0 5 101
66 110 67 2 0 0 -4 -5 -9z"/>
</g>
</svg>
