<?xml version="1.0" standalone="no"?>
<!DOCTYPE svg PUBLIC "-//W3C//DTD SVG 20010904//EN"
 "http://www.w3.org/TR/2001/REC-SVG-20010904/DTD/svg10.dtd">
<svg version="1.0" xmlns="http://www.w3.org/2000/svg"
 width="344.000000pt" height="332.000000pt" viewBox="0 0 344.000000 332.000000"
 preserveAspectRatio="xMidYMid meet">

<g transform="translate(0.000000,332.000000) scale(0.100000,-0.100000)"
fill="#000000" stroke="none">
<path d="M646 2959 l-39 -50 34 -37 c19 -20 39 -40 44 -44 6 -4 100 -8 210 -8
l200 1 38 45 39 44 -38 50 -38 50 -206 0 -206 0 -38 -51z"/>
<path d="M308 2939 l-48 -41 0 -473 0 -473 51 -46 c56 -50 48 -51 122 9 l37
30 0 188 0 187 281 0 280 0 27 32 c55 64 54 60 10 111 l-40 47 -279 0 -279 0
0 194 0 194 -47 41 c-27 23 -52 41 -58 41 -5 -1 -31 -19 -57 -41z"/>
<path d="M1532 2771 l-42 -49 46 -51 46 -51 687 0 687 0 47 48 c26 26 47 52
47 58 0 5 -19 29 -43 52 l-43 42 -695 0 -696 0 -41 -49z"/>
<path d="M2253 2452 l-41 -37 -5 -105 c-6 -136 -29 -201 -96 -263 -66 -61
-132 -81 -255 -75 -194 9 -265 101 -266 343 l0 100 -40 33 c-21 17 -42 32 -45
32 -4 0 -25 -14 -46 -31 l-39 -31 0 -121 c0 -193 33 -307 112 -393 82 -89 220
-131 398 -121 153 8 254 57 330 160 l34 46 28 -43 c71 -115 242 -174 431 -149
150 20 235 78 291 196 43 90 53 140 62 297 l7 125 -47 38 -46 38 -28 -19 c-57
-41 -60 -49 -64 -182 -4 -102 -9 -135 -27 -178 -43 -96 -106 -132 -236 -132
-85 0 -139 14 -183 47 -69 52 -92 116 -101 282 l-6 114 -40 32 -40 33 -42 -36z"/>
<path d="M632 1949 l-33 -50 37 -44 36 -45 208 0 208 0 42 50 42 50 -37 45
-36 45 -217 0 -217 0 -33 -51z"/>
<path d="M2850 1487 c-36 -18 -110 -53 -165 -79 -55 -25 -210 -98 -345 -161
-135 -63 -294 -138 -355 -166 -161 -74 -158 -72 -181 -121 -41 -86 -42 -84 31
-112 l65 -26 317 147 c175 81 427 198 559 260 l242 113 16 57 c9 32 16 60 16
64 0 9 -108 57 -124 56 -6 0 -40 -15 -76 -32z"/>
<path d="M623 1495 c-76 -17 -173 -62 -236 -110 -42 -32 -47 -40 -46 -73 1
-20 4 -50 8 -67 6 -27 11 -30 60 -38 53 -7 57 -6 110 31 75 52 158 82 250 89
157 12 310 -34 380 -113 37 -42 71 -123 71 -169 0 -16 15 -34 49 -59 27 -20
53 -36 58 -36 5 0 31 20 58 44 l50 43 -13 73 c-33 190 -191 339 -410 386 -84
17 -306 17 -389 -1z"/>
<path d="M2698 1046 l-38 -33 0 -206 c0 -113 -4 -208 -8 -211 -4 -3 -107 40
-228 95 l-219 100 -62 -17 c-35 -9 -63 -22 -63 -28 0 -7 10 -38 23 -70 l22
-58 400 -185 400 -185 53 19 c81 27 80 25 56 90 l-20 58 -87 42 -87 42 0 255
0 254 -42 36 c-23 20 -46 36 -52 36 -6 -1 -28 -16 -48 -34z"/>
<path d="M1272 778 c-29 -23 -52 -49 -52 -59 0 -34 -42 -131 -71 -164 -68 -77
-177 -115 -330 -115 -132 0 -229 32 -340 111 -10 8 -35 9 -71 5 l-56 -7 -7
-60 c-7 -57 -6 -62 21 -91 40 -41 173 -104 273 -129 71 -18 104 -20 215 -16
75 2 157 12 191 21 190 52 328 179 370 341 25 98 21 114 -39 162 l-52 41 -52
-40z"/>
</g>
</svg>
