<?xml version="1.0" standalone="no"?>
<!DOCTYPE svg PUBLIC "-//W3C//DTD SVG 20010904//EN"
 "http://www.w3.org/TR/2001/REC-SVG-20010904/DTD/svg10.dtd">
<svg version="1.0" xmlns="http://www.w3.org/2000/svg"
 width="100.000000pt" height="100.000000pt" viewBox="0 0 100.000000 100.000000"
 preserveAspectRatio="xMidYMid meet">

<g transform="translate(0.000000,100.000000) scale(0.100000,-0.100000)"
fill="#000000" stroke="none">
<path d="M0 500 l0 -500 500 0 500 0 0 500 0 500 -500 0 -500 0 0 -500z m425
155 c37 -52 71 -95 75 -95 4 0 37 43 74 95 l68 95 104 0 104 0 0 -70 c0 -68
-1 -70 -25 -70 l-25 0 0 -110 0 -110 25 0 c24 0 25 -2 25 -70 l0 -70 -130 0
-130 0 0 69 c0 69 0 70 28 73 26 3 27 6 30 66 2 34 -1 62 -5 62 -5 0 -39 -41
-77 -91 l-68 -91 -64 88 c-36 49 -69 91 -74 92 -6 2 -10 -24 -10 -62 l0 -66
30 0 30 0 0 -70 0 -70 -130 0 -130 0 0 70 c0 68 1 70 25 70 l25 0 0 110 0 110
-25 0 c-24 0 -25 2 -25 70 l0 70 103 0 103 0 69 -95z"/>
</g>
</svg>
